<?xml version="1.0" encoding="UTF-8"?>
<svg id="Capa_2" xmlns="http://www.w3.org/2000/svg" viewBox="0 0 775.62 222.49">
  <defs>
    <style>
      .cls-1 {
        fill: #4d4d4d;
      }

      .cls-2 {
        fill: #209959;
      }

      .cls-3 {
        fill: #25c877;
      }
    </style>
  </defs>
  <g id="Capa_1-2" data-name="Capa_1">
    <g>
      <path class="cls-3" d="M279.4,176.64v-65.6c0-34.53,30.64-67.33,74.24-67.33v33.67s-37.55,6.47-37.55,37.55v61.72h-36.69Z"/>
      <path class="cls-1" d="M737.55,171.89s16.58-5.88,26.97-8.67,11.12-3.98,11.1-6.45c-.03-2.47-2.94-3.83-2.94-3.83,0,0-73.15-26.54-77.81-29.03-5.15-2.76-7.14-1.38-7.14-1.38-.22.11-.4.28-.4.28,0,0-3.11,2.76,0,7.51,2.89,4.42,29.84,77.5,29.84,77.5,0,0,1.4,2.9,3.86,2.9s3.65-.75,6.33-11.16,8.24-26.15,8.24-26.15c0,0,.7-1.33,1.95-1.52Z"/>
      <path class="cls-2" d="M478.99,76.58v-33.67c-14.07,0-26.77,3.43-37.55,9.22-15.35,8.25-26.76,21.3-32.5,36.15V9.14h-38.96v167.11h38.96v-44.98c5.74,14.85,17.15,27.91,32.5,36.15,10.78,5.79,23.48,9.22,37.55,9.22v-33.67s-24.14-4.18-33.69-21.86c-.07-.13-.13-.25-.19-.38-.18-.34-.34-.68-.51-1.03-2.55-5.49-2.74-10.3-2.08-14.06,6.04-23.77,36.48-29.05,36.48-29.05Z"/>
      <path class="cls-2" d="M608.4,76.58v-33.67c-14.07,0-26.77,3.43-37.55,9.22-15.35,8.25-26.76,21.3-32.5,36.15V9.14h-38.96v167.11h38.96v-44.98c5.74,14.85,17.15,27.91,32.5,36.15,10.78,5.79,23.48,9.22,37.55,9.22v-33.67s-24.14-4.18-33.69-21.86c-.07-.13-.13-.25-.19-.38-.18-.34-.34-.68-.51-1.03-2.55-5.49-2.74-10.3-2.08-14.06,6.04-23.77,36.48-29.05,36.48-29.05Z"/>
      <path class="cls-3" d="M256.28,121.15h10.57c.48-8.71.3-15.41-.1-20.37-.14-2.46-.44-4.9-.91-7.3-.52-2.93-1-4.25-1-4.25h0c-.09-.31-.17-.62-.26-.93-1.51-5.08-3.65-9.85-6.4-14.32-2.76-4.47-6.05-8.59-9.88-12.35-3.83-3.77-8.05-6.99-12.66-9.68-4.61-2.69-9.53-4.77-14.77-6.25-5.24-1.48-10.66-2.22-16.24-2.22-6.12,0-11.93.81-17.45,2.42-5.51,1.61-10.62,3.87-15.33,6.76-4.71,2.89-8.96,6.37-12.76,10.44-3.8,4.07-7.03,8.52-9.68,13.36-2.66,4.84-4.71,10.03-6.15,15.58-1.45,5.55-2.17,11.28-2.17,17.19,0,9.48,1.82,18.25,5.45,26.32,3.63,8.07,8.54,15.08,14.72,21.03,6.18,5.95,13.38,10.61,21.58,13.97,8.2,3.36,16.91,5.04,26.12,5.04,8.27,0,16.1-1.53,23.5-4.59,6.14-2.54,11.76-5.91,16.88-10.1,1.14-.89,2.23-1.84,3.25-2.8.94-.71,1.76-1.52,2.46-2.44.03-.05.06-.1.09-.14,2.54-2.73,4.18-4.97,4.18-4.97l-19.41-21.18-4.37,3.29s0,0,0,0c-.02.02-.04.03-.06.05l-5.75,4.33c-.58.35-1.16.7-1.75,1.07-1.93,1.2-4.17,2.08-6.56,2.93-2.39.84-4.86,1.51-7.41,2.02-2.56.5-5.04.76-7.46.76-2.69,0-5.55-.37-8.57-1.11-3.03-.74-5.88-1.97-8.57-3.68-2.69-1.71-5.06-4.02-7.11-6.91-2.05-2.89-3.41-6.49-4.08-10.79h72.61c2.07,0,3.89-.06,5.47-.18ZM183.6,85.94c1.71-2.22,3.65-4.2,5.8-5.95,2.15-1.75,4.45-3.14,6.91-4.19,2.45-1.04,4.99-1.56,7.61-1.56,3.63,0,6.81.47,9.53,1.41,2.72.94,5.14,2.25,7.26,3.93,2.12,1.68,4,3.63,5.65,5.85,1.65,2.22,3.18,4.64,4.59,7.26h-51.53c1.07-2.28,2.47-4.54,4.19-6.76Z"/>
      <g>
        <path class="cls-1" d="M54.13,196.23v6.51h8.64v3.46h-8.64v9.49h-3.78v-23.01h13.27v3.54h-9.5Z"/>
        <path class="cls-1" d="M75.3,216.13c-5.43,0-9.49-3.97-9.49-9.31s4.06-9.31,9.49-9.31,9.49,3.96,9.49,9.31-4.07,9.31-9.49,9.31h0ZM81.07,206.82c0-3.4-2.42-5.82-5.78-5.82s-5.78,2.43-5.78,5.82,2.42,5.82,5.78,5.82,5.78-2.43,5.78-5.82Z"/>
        <path class="cls-1" d="M98.77,197.85v3.45h-1.93c-3.02,0-4.52,1.72-4.52,4.94v9.46h-3.65v-17.75h2.47l.62,2.42c1.27-1.68,3.01-2.52,5.44-2.52h1.58Z"/>
        <path class="cls-1" d="M97.61,218.72h1.27c2.03,0,3.13-1.13,3.13-3.16v-17.62h3.65v17.89c0,3.7-2.52,6.22-6.24,6.22h-1.81v-3.34ZM101.97,191.43h3.77v3.76h-3.77v-3.76Z"/>
        <path class="cls-1" d="M128.52,197.94v17.75h-2.94l-.35-2.16c-1.61,1.63-3.85,2.6-6.44,2.6-5.29,0-9.24-4-9.24-9.32s3.95-9.3,9.24-9.3c2.62,0,4.88.99,6.49,2.64l.43-2.22h2.82ZM124.86,206.81c0-3.34-2.44-5.82-5.79-5.82s-5.81,2.5-5.81,5.82,2.47,5.82,5.81,5.82,5.79-2.48,5.79-5.82Z"/>
        <path class="cls-1" d="M149.86,205.01v10.69h-3.65v-9.94c0-3.22-1.4-4.94-4.07-4.94s-4.77,2.24-4.77,5.38v9.5h-3.65v-17.75h2.54l.71,2.48c1.34-1.79,3.53-2.88,6.14-2.88,4.15,0,6.74,3.09,6.74,7.47Z"/>
        <path class="cls-1" d="M172.24,191.58v24.11h-2.76l-.47-2.01c-1.6,1.54-3.78,2.46-6.27,2.46-5.37,0-9.23-4-9.23-9.32s3.86-9.31,9.23-9.31c2.28,0,4.3.76,5.85,2.06v-8h3.65ZM163.03,212.64c3.35,0,5.81-2.52,5.81-5.82s-2.47-5.82-5.81-5.82-5.79,2.48-5.79,5.82,2.44,5.82,5.79,5.82h0Z"/>
        <path class="cls-1" d="M185.62,216.13c-5.43,0-9.49-3.97-9.49-9.31s4.06-9.31,9.49-9.31,9.49,3.96,9.49,9.31-4.07,9.31-9.49,9.31h0ZM191.39,206.82c0-3.4-2.42-5.82-5.78-5.82s-5.78,2.43-5.78,5.82,2.42,5.82,5.78,5.82,5.78-2.43,5.78-5.82Z"/>
        <path class="cls-1" d="M224.13,206.86c0,.4-.03.8-.08,1.2h-14.41c.46,2.88,2.53,4.65,5.43,4.65,2.12,0,3.84-.98,4.78-2.6h3.84c-1.41,3.75-4.65,6.02-8.62,6.02-5.19,0-9.12-4.01-9.12-9.31s3.92-9.31,9.12-9.31,9.05,4.18,9.05,9.35h0ZM215.08,200.81c-2.74,0-4.74,1.66-5.34,4.29h10.73c-.65-2.7-2.69-4.29-5.39-4.29h0Z"/>
        <path class="cls-1" d="M228,191.58h3.65v24.11h-3.65v-24.11Z"/>
        <path class="cls-1" d="M255.19,201.15h-5.02v14.55h-3.65v-14.55h-3.32v-3.03h3.33v-1.5c0-3.62,1.8-5.62,5.67-5.62h2.96v2.91h-2.26c-1.98,0-2.84.83-2.84,2.8v1.42h5.13v3.03Z"/>
        <path class="cls-1" d="M257.96,208.2v-10.25h3.65v9.74c0,3.08,1.68,4.96,4.42,4.96s4.41-1.91,4.41-4.96v-9.74h3.65v10.25c0,4.78-3.17,7.93-8.06,7.93s-8.07-3.15-8.07-7.93Z"/>
        <path class="cls-1" d="M288.94,212.38v3.31h-2.71c-3.89,0-6.29-2.4-6.29-6.32v-8.3h-3.17v-.71l6.17-6.56h.62v4.14h5.28v3.12h-5.25v8.02c0,2.12,1.18,3.29,3.33,3.29h2.02Z"/>
        <path class="cls-1" d="M292.2,208.2v-10.25h3.65v9.74c0,3.08,1.68,4.96,4.42,4.96s4.41-1.91,4.41-4.96v-9.74h3.65v10.25c0,4.78-3.17,7.93-8.06,7.93s-8.07-3.15-8.07-7.93Z"/>
        <path class="cls-1" d="M323.35,197.85v3.45h-1.93c-3.02,0-4.52,1.72-4.52,4.94v9.46h-3.65v-17.75h2.47l.62,2.42c1.27-1.68,3.01-2.52,5.44-2.52h1.58Z"/>
        <path class="cls-1" d="M333.89,216.13c-5.43,0-9.49-3.97-9.49-9.31s4.06-9.31,9.49-9.31,9.49,3.96,9.49,9.31-4.07,9.31-9.49,9.31h0ZM339.67,206.82c0-3.4-2.42-5.82-5.78-5.82s-5.78,2.43-5.78,5.82,2.42,5.82,5.78,5.82,5.78-2.43,5.78-5.82Z"/>
        <path class="cls-1" d="M372.96,191.58v24.11h-2.76l-.47-2.01c-1.6,1.54-3.78,2.46-6.27,2.46-5.37,0-9.23-4-9.23-9.32s3.86-9.31,9.23-9.31c2.28,0,4.3.76,5.85,2.06v-8h3.65ZM363.75,212.64c3.35,0,5.81-2.52,5.81-5.82s-2.47-5.82-5.81-5.82-5.79,2.48-5.79,5.82,2.44,5.82,5.79,5.82h0Z"/>
        <path class="cls-1" d="M395.01,206.86c0,.4-.03.8-.08,1.2h-14.41c.46,2.88,2.53,4.65,5.43,4.65,2.12,0,3.84-.98,4.78-2.6h3.84c-1.41,3.75-4.65,6.02-8.62,6.02-5.19,0-9.12-4.01-9.12-9.31s3.92-9.31,9.12-9.31,9.05,4.18,9.05,9.35h0ZM385.97,200.81c-2.74,0-4.74,1.66-5.34,4.29h10.73c-.65-2.7-2.69-4.29-5.39-4.29h0Z"/>
        <path class="cls-1" d="M398.89,191.58h3.65v24.11h-3.65v-24.11Z"/>
        <path class="cls-1" d="M414.71,206.8c0-5.3,4.01-9.29,9.31-9.29,4.39,0,7.81,2.69,8.8,6.76h-3.62c-.93-2.04-2.88-3.28-5.19-3.28-3.19,0-5.59,2.52-5.59,5.81s2.42,5.83,5.59,5.83c2.32,0,4.2-1.25,5.17-3.41h3.68c-.98,4.15-4.47,6.9-8.85,6.9-5.29,0-9.3-4.02-9.3-9.33Z"/>
        <path class="cls-1" d="M444.64,216.13c-5.43,0-9.49-3.97-9.49-9.31s4.06-9.31,9.49-9.31,9.49,3.96,9.49,9.31-4.07,9.31-9.49,9.31h0ZM450.41,206.82c0-3.4-2.42-5.82-5.78-5.82s-5.78,2.43-5.78,5.82,2.42,5.82,5.78,5.82,5.78-2.43,5.78-5.82Z"/>
        <path class="cls-1" d="M477.85,197.54c3.74,0,6.27,2.85,6.27,6.87v11.29h-3.65v-10.39c0-2.86-1.24-4.49-3.45-4.49-2.35,0-4.16,2.15-4.16,5.18v9.71h-3.56v-10.39c0-2.86-1.23-4.49-3.46-4.49-2.36,0-4.18,2.15-4.18,5.18v9.71h-3.65v-17.75h2.58l.63,2.29c1.33-1.66,3.36-2.7,5.51-2.7,2.41,0,4.31,1.18,5.32,3.11,1.29-1.91,3.45-3.11,5.79-3.11h0Z"/>
        <path class="cls-1" d="M505.93,206.86c0,.4-.03.8-.08,1.2h-14.41c.46,2.88,2.53,4.65,5.43,4.65,2.12,0,3.84-.98,4.78-2.6h3.84c-1.41,3.75-4.65,6.02-8.62,6.02-5.19,0-9.12-4.01-9.12-9.31s3.92-9.31,9.12-9.31,9.05,4.18,9.05,9.35h0ZM496.88,200.81c-2.74,0-4.74,1.66-5.34,4.29h10.73c-.65-2.7-2.69-4.29-5.39-4.29h0Z"/>
        <path class="cls-1" d="M519.9,197.85v3.45h-1.93c-3.02,0-4.52,1.72-4.52,4.94v9.46h-3.65v-17.75h2.47l.62,2.42c1.27-1.68,3.01-2.52,5.44-2.52h1.58Z"/>
        <path class="cls-1" d="M520.95,206.8c0-5.3,4.01-9.29,9.31-9.29,4.39,0,7.81,2.69,8.8,6.76h-3.62c-.93-2.04-2.88-3.28-5.19-3.28-3.19,0-5.59,2.52-5.59,5.81s2.42,5.83,5.59,5.83c2.32,0,4.2-1.25,5.17-3.41h3.68c-.98,4.15-4.47,6.9-8.85,6.9-5.29,0-9.3-4.02-9.3-9.33Z"/>
        <path class="cls-1" d="M542.63,191.43h3.77v3.76h-3.77v-3.76ZM542.7,197.95h3.65v17.75h-3.65v-17.75Z"/>
        <path class="cls-1" d="M559.72,216.13c-5.43,0-9.49-3.97-9.49-9.31s4.06-9.31,9.49-9.31,9.49,3.96,9.49,9.31-4.07,9.31-9.49,9.31h0ZM565.5,206.82c0-3.4-2.42-5.82-5.78-5.82s-5.78,2.43-5.78,5.82,2.42,5.82,5.78,5.82,5.78-2.43,5.78-5.82Z"/>
        <path class="cls-1" d="M598.79,191.58v24.11h-2.76l-.47-2.01c-1.6,1.54-3.78,2.46-6.27,2.46-5.37,0-9.23-4-9.23-9.32s3.86-9.31,9.23-9.31c2.28,0,4.3.76,5.85,2.06v-8h3.65ZM589.58,212.64c3.35,0,5.81-2.52,5.81-5.82s-2.47-5.82-5.81-5.82-5.79,2.48-5.79,5.82,2.44,5.82,5.79,5.82h0Z"/>
        <path class="cls-1" d="M603.92,191.43h3.77v3.76h-3.77v-3.76ZM603.98,197.95h3.65v17.75h-3.65v-17.75Z"/>
        <path class="cls-1" d="M629.74,197.95v15.43c0,5.66-3.37,9.12-8.86,9.12-4.55,0-7.77-2.36-8.68-6.25h3.64c.68,1.95,2.77,3.02,5.01,3.02,3.07,0,5.31-2.02,5.31-5.38v-.82c-1.54,1.33-3.58,2.12-5.88,2.12-4.94,0-8.77-3.84-8.77-8.81s3.83-8.85,8.77-8.85c2.6,0,4.88,1.03,6.48,2.72l.58-2.29h2.39ZM626.15,206.36c0-3.14-2.28-5.44-5.45-5.44s-5.47,2.32-5.47,5.44,2.3,5.43,5.47,5.43,5.45-2.3,5.45-5.43Z"/>
        <path class="cls-1" d="M634.88,191.43h3.77v3.76h-3.77v-3.76ZM634.94,197.95h3.65v17.75h-3.65v-17.75Z"/>
        <path class="cls-1" d="M653.71,212.38v3.31h-2.71c-3.89,0-6.29-2.4-6.29-6.32v-8.3h-3.17v-.71l6.17-6.56h.62v4.14h5.28v3.12h-5.25v8.02c0,2.12,1.18,3.29,3.33,3.29h2.02Z"/>
        <path class="cls-1" d="M674.73,197.94v17.75h-2.94l-.36-2.16c-1.61,1.63-3.85,2.6-6.44,2.6-5.29,0-9.24-4-9.24-9.32s3.95-9.3,9.24-9.3c2.62,0,4.88.99,6.49,2.64l.43-2.22h2.82ZM671.07,206.81c0-3.34-2.44-5.82-5.79-5.82s-5.81,2.5-5.81,5.82,2.47,5.82,5.81,5.82,5.79-2.48,5.79-5.82Z"/>
        <path class="cls-1" d="M679.93,191.58h3.65v24.11h-3.65v-24.11Z"/>
      </g>
      <path class="cls-3" d="M675.03,143.39c-17.51-3.65-16.36-22.27-16.36-22.27V45.57h-34.05v82.7s1.43,48.36,58.09,48.36c1.18,0,2.33-.03,3.46-.07l-11.14-33.18ZM641.13,62.09c-2.44,0-4.42-1.98-4.42-4.42s1.98-4.42,4.42-4.42,4.42,1.98,4.42,4.42-1.98,4.42-4.42,4.42Z"/>
      <path class="cls-3" d="M705.61,45.57v63.38l32.62,13.93V45.57h-32.62ZM721.92,62.09c-2.44,0-4.42-1.98-4.42-4.42s1.98-4.42,4.42-4.42,4.42,1.98,4.42,4.42-1.98,4.42-4.42,4.42Z"/>
      <path class="cls-2" d="M680.9,11.79c20.03,0,36.27,16.24,36.27,36.27h11.79c0-26.54-21.51-48.05-48.05-48.05s-48.05,21.51-48.05,48.05h11.79c0-20.03,16.24-36.27,36.27-36.27Z"/>
      <path class="cls-3" d="M149.79,44.59l-56.59,132.05h-36.79L0,44.59h40.37l35.84,86.02,36.6-86.02h36.97Z"/>
    </g>
  </g>
</svg>